<svg width="4994" height="972" viewBox="0 0 4994 972" fill="none" xmlns="http://www.w3.org/2000/svg">
<rect x="504.109" y="590.571" width="86.085" height="337.567" transform="rotate(5.08735 504.109 590.571)" fill="#565AA5"/>
<rect x="396.136" y="559.967" width="86.085" height="337.567" transform="rotate(58.4199 396.136 559.967)" fill="#565AA5"/>
<rect x="347.594" y="452.594" width="86.085" height="337.567" transform="rotate(109.803 347.594 452.594)" fill="#565AA5"/>
<rect x="402.008" y="349.195" width="86.085" height="337.567" transform="rotate(161.934 402.008 349.195)" fill="#565AA5"/>
<rect x="513.752" y="332.156" width="86.085" height="337.567" transform="rotate(-147.747 513.752 332.156)" fill="#565AA5"/>
<rect x="611.631" y="403.697" width="86.085" height="337.567" transform="rotate(-95.4107 611.631 403.697)" fill="#565AA5"/>
<rect x="601.968" y="520.325" width="86.085" height="337.567" transform="rotate(-45 601.968 520.325)" fill="#565AA5"/>
<circle cx="359.203" cy="828.209" r="64.1001" fill="#565AA5"/>
<circle cx="695.728" cy="785.963" r="64.1001" fill="#565AA5"/>
<circle cx="872.003" cy="494.598" r="64.1001" fill="#565AA5"/>
<circle cx="755.458" cy="172.64" r="64.1001" fill="#565AA5"/>
<ellipse cx="431.314" cy="70.6633" rx="64.8285" ry="64.1001" fill="#565AA5"/>
<circle cx="149.422" cy="251.308" r="64.1001" fill="#565AA5"/>
<ellipse cx="117.37" cy="592.933" rx="64.1001" ry="64.8285" fill="#565AA5"/>
<path d="M1576.52 771.621C1542.02 771.621 1509.95 767.082 1480.29 758.003C1451.24 748.925 1424.61 735.307 1400.4 717.15C1376.8 698.388 1355.61 675.39 1336.85 648.155L1404.03 570.988C1433.69 613.354 1462.13 642.708 1489.37 659.049C1516.6 675.39 1548.98 683.56 1586.51 683.56C1609.51 683.56 1630.39 679.929 1649.15 672.666C1667.91 665.404 1682.74 655.417 1693.63 642.708C1704.53 629.998 1709.97 615.473 1709.97 599.131C1709.97 588.237 1708.16 577.949 1704.53 568.265C1700.89 558.581 1695.14 549.806 1687.28 541.938C1680.01 534.07 1670.33 526.807 1658.23 520.149C1646.73 513.492 1633.11 507.742 1617.37 502.901C1601.64 497.454 1583.48 492.914 1562.9 489.283C1530.22 482.625 1501.77 473.85 1477.57 462.956C1453.36 452.062 1433.08 438.444 1416.74 422.103C1400.4 405.762 1388.3 387.302 1380.43 366.725C1372.56 345.542 1368.63 321.938 1368.63 295.913C1368.63 270.494 1374.07 246.89 1384.97 225.102C1396.47 203.314 1411.9 184.552 1431.27 168.816C1451.24 152.475 1474.54 140.068 1501.17 131.595C1527.8 122.516 1556.55 117.977 1587.41 117.977C1620.1 117.977 1650.06 122.214 1677.29 130.687C1704.53 139.16 1728.73 151.87 1749.92 168.816C1771.1 185.157 1788.65 205.432 1802.57 229.641L1733.58 297.729C1721.47 277.757 1707.85 261.113 1692.72 247.798C1677.59 233.878 1660.95 223.589 1642.79 216.931C1624.64 209.669 1605.27 206.037 1584.69 206.037C1561.09 206.037 1540.51 209.669 1522.96 216.931C1505.41 224.194 1491.49 234.483 1481.2 247.798C1471.51 260.508 1466.67 275.638 1466.67 293.19C1466.67 305.9 1469.09 317.701 1473.93 328.596C1478.78 338.884 1486.04 348.265 1495.72 356.739C1506.01 364.606 1519.63 371.869 1536.58 378.527C1553.52 384.579 1573.8 390.026 1597.4 394.868C1630.69 402.13 1660.34 411.511 1686.37 423.011C1712.39 433.905 1734.48 446.917 1752.64 462.048C1770.8 477.178 1784.42 494.125 1793.49 512.887C1803.18 531.649 1808.02 551.924 1808.02 573.712C1808.02 614.262 1798.64 649.365 1779.88 679.021C1761.11 708.677 1734.48 731.676 1699.99 748.017C1665.49 763.753 1624.33 771.621 1576.52 771.621ZM2003.23 971.345L2099.46 748.925L2100.36 823.368L1862.51 285.927H1971.45L2120.34 636.353C2123.36 642.405 2126.99 651.786 2131.23 664.496C2135.47 676.6 2139.1 688.705 2142.12 700.809L2118.52 706.256C2123.36 693.547 2127.9 680.837 2132.14 668.127C2136.98 655.417 2141.52 642.708 2145.76 629.998L2270.13 285.927H2380.89L2184.79 762.542L2104 971.345H2003.23ZM2450.84 762.542V285.927H2544.35V383.974L2528.01 394.868C2534.06 373.685 2545.86 354.318 2563.41 336.766C2580.96 318.609 2601.84 304.084 2626.05 293.19C2650.26 281.691 2675.08 275.941 2700.5 275.941C2736.81 275.941 2767.07 283.204 2791.28 297.729C2815.49 311.649 2833.64 333.135 2845.75 362.186C2857.85 391.236 2863.91 427.853 2863.91 472.034V762.542H2770.4V478.389C2770.4 451.154 2766.77 428.76 2759.5 411.209C2752.24 393.052 2741.05 380.04 2725.91 372.172C2710.78 363.699 2692.02 360.067 2669.63 361.278C2651.47 361.278 2634.83 364.304 2619.7 370.356C2604.57 375.803 2591.25 383.671 2579.75 393.96C2568.86 404.249 2560.08 416.353 2553.43 430.273C2547.37 443.588 2544.35 458.114 2544.35 473.85V762.542H2498.05C2490.18 762.542 2482.31 762.542 2474.44 762.542C2466.58 762.542 2458.71 762.542 2450.84 762.542ZM3049.76 762.542V164.277H3143.27V762.542H3049.76ZM2950.81 376.711V285.927H3254.03V376.711H2950.81ZM3339.17 762.542V90.7419H3432.68V383.974L3416.34 394.868C3422.39 373.685 3434.19 354.318 3451.75 336.766C3469.3 318.609 3490.18 304.084 3514.39 293.19C3538.6 281.691 3563.41 275.941 3588.83 275.941C3625.14 275.941 3655.4 283.204 3679.61 297.729C3703.82 311.649 3721.98 333.135 3734.08 362.186C3746.19 391.236 3752.24 427.853 3752.24 472.034V762.542H3658.73V478.389C3658.73 451.154 3655.1 428.76 3647.84 411.209C3640.58 393.052 3629.38 380.04 3614.25 372.172C3599.12 363.699 3580.36 360.067 3557.96 361.278C3539.81 361.278 3523.16 364.304 3508.03 370.356C3492.9 375.803 3479.59 383.671 3468.09 393.96C3457.19 404.249 3448.42 416.353 3441.76 430.273C3435.71 443.588 3432.68 458.114 3432.68 473.85V762.542H3386.38C3378.51 762.542 3370.65 762.542 3362.78 762.542C3354.91 762.542 3347.04 762.542 3339.17 762.542Z" fill="black"/>
<path d="M4101.51 771.621C4052.49 771.621 4008.91 761.332 3970.78 740.754C3933.26 719.571 3903.6 690.823 3881.81 654.51C3860.63 618.196 3850.04 576.435 3850.04 529.228C3850.04 491.704 3856.09 457.509 3868.2 426.642C3880.3 395.776 3896.94 369.146 3918.13 346.752C3939.91 323.754 3965.64 306.202 3995.29 294.098C4025.55 281.388 4058.24 275.033 4093.34 275.033C4124.21 275.033 4152.95 281.085 4179.58 293.19C4206.21 304.689 4229.21 320.728 4248.58 341.305C4268.55 361.883 4283.68 386.395 4293.97 414.84C4304.87 442.681 4310.01 473.244 4309.4 506.532L4308.5 546.477H3919.03L3898.15 472.034H4227.7L4214.08 487.467V465.679C4212.27 445.707 4205.61 427.853 4194.11 412.117C4182.61 396.381 4168.08 383.974 4150.53 374.895C4132.98 365.817 4113.92 361.278 4093.34 361.278C4060.66 361.278 4033.12 367.633 4010.73 380.342C3988.33 392.447 3971.39 410.604 3959.89 434.813C3948.39 458.416 3942.64 487.77 3942.64 522.873C3942.64 556.16 3949.6 585.211 3963.52 610.025C3977.44 634.235 3997.11 652.997 4022.53 666.311C4047.95 679.626 4077.3 686.284 4110.59 686.284C4134.19 686.284 4155.98 682.35 4175.95 674.482C4196.53 666.614 4218.62 652.391 4242.22 631.814L4289.43 698.086C4274.91 712.611 4257.05 725.321 4235.87 736.215C4215.29 747.109 4193.2 755.885 4169.6 762.542C4146.6 768.595 4123.9 771.621 4101.51 771.621ZM4725.2 762.542L4570.87 561.91L4557.25 544.661L4356.62 285.927H4474.64L4626.25 483.836L4641.68 503.808L4839.59 762.542H4725.2ZM4357.53 762.542L4545.45 517.426L4600.83 583.698L4468.28 762.542H4357.53ZM4647.13 531.951L4595.38 466.587L4712.49 285.927H4823.25L4647.13 531.951Z" fill="#7D7D7D"/>
</svg>
